<svg width="16" height="16" viewBox="0 0 16 16" fill="none" xmlns="http://www.w3.org/2000/svg">
<path d="M14.2881 0.292969C14.6786 -0.0975355 15.3116 -0.0974955 15.7021 0.292969C16.0927 0.683493 16.0927 1.31651 15.7021 1.70703L9.41211 7.99707L15.7031 14.2881C16.0936 14.6786 16.0936 15.3116 15.7031 15.7021C15.3126 16.0927 14.6796 16.0927 14.2891 15.7021L7.99805 9.41113L1.70703 15.7021C1.31651 16.0927 0.683493 16.0927 0.292969 15.7021C-0.0974955 15.3116 -0.0975355 14.6786 0.292969 14.2881L6.58398 7.99707L0.293945 1.70703C-0.096579 1.31651 -0.096579 0.683493 0.293945 0.292969C0.684474 -0.0974955 1.3175 -0.0975355 1.70801 0.292969L7.99805 6.58301L14.2881 0.292969Z" fill="black" fill-opacity="0.3"/>
</svg>
