<svg width="129" height="32" viewBox="0 0 129 32" fill="none" xmlns="http://www.w3.org/2000/svg">
<g filter="url(#filter0_d_7322_1544)">
<path d="M14.624 0.000249863C16.7573 0.000249863 18.6027 0.426916 20.16 1.28025C21.7387 2.11225 22.944 3.36025 23.776 5.02425C24.6293 6.66692 25.056 8.71492 25.056 11.1682C25.056 13.6856 24.64 15.7976 23.808 17.5042C22.9973 19.1896 21.8133 20.4696 20.256 21.3442C18.72 22.2189 16.864 22.6562 14.688 22.6562H4V22.3362L5.952 21.9202V0.672249L4 0.32025V0.000249863H14.624ZM13.76 0.512249C13.0347 0.512249 12.288 0.533582 11.52 0.576248C10.7733 0.618916 10.144 0.672249 9.632 0.736248V21.5362L10.272 22.1762H13.856C16.3733 22.1762 18.24 21.2269 19.456 19.3282C20.6933 17.4296 21.312 14.6349 21.312 10.9442C21.312 8.70425 21.0347 6.81625 20.48 5.28025C19.9253 3.72292 19.0827 2.53891 17.952 1.72825C16.8427 0.917582 15.4453 0.512249 13.76 0.512249ZM46.993 23.1363C46.3743 23.1363 45.7877 22.9656 45.233 22.6242C44.6783 22.2829 44.1343 21.7496 43.601 21.0242C43.089 20.2776 42.5557 19.3389 42.001 18.2082C41.3183 16.8002 40.6143 15.5416 39.889 14.4323C39.1637 13.3229 38.3637 12.3629 37.489 11.5522H34.257V21.9202L36.209 22.3362V22.6562H28.625V22.3362L30.577 21.9202V0.704248L28.625 0.32025V0.000249863H39.793C41.4357 0.000249863 42.8223 0.202916 43.953 0.60825C45.0837 0.99225 45.937 1.58958 46.513 2.40025C47.089 3.18958 47.377 4.18158 47.377 5.37625C47.377 6.48558 47.0463 7.46692 46.385 8.32025C45.7237 9.15225 44.753 9.82425 43.473 10.3362C42.193 10.8269 40.625 11.1362 38.769 11.2642V11.4882C39.4943 11.5522 40.1557 11.6909 40.753 11.9042C41.3717 12.1176 41.9263 12.4162 42.417 12.8002C42.929 13.1842 43.3877 13.6536 43.793 14.2083C44.1983 14.7629 44.5717 15.4136 44.913 16.1602C45.489 17.4829 45.9903 18.5709 46.417 19.4242C46.865 20.2776 47.2597 20.9176 47.601 21.3442C47.9423 21.7709 48.241 22.0162 48.497 22.0802C48.7317 22.1656 48.9663 22.1762 49.201 22.1122V22.4322C48.9877 22.6029 48.7423 22.7416 48.465 22.8483C48.209 22.9549 47.953 23.0296 47.697 23.0723C47.441 23.1149 47.2063 23.1363 46.993 23.1363ZM37.169 10.9122C38.193 10.9122 39.1103 10.7842 39.921 10.5282C40.753 10.2722 41.457 9.90958 42.033 9.44025C42.609 8.97092 43.0463 8.40558 43.345 7.74425C43.665 7.06158 43.825 6.30425 43.825 5.47225C43.825 4.38425 43.6117 3.47758 43.185 2.75225C42.7797 2.00558 42.1717 1.44025 41.361 1.05625C40.5717 0.672249 39.6117 0.480249 38.481 0.480249C37.5637 0.480249 36.7637 0.501582 36.081 0.544249C35.3983 0.586916 34.7903 0.650916 34.257 0.736248V10.7202C34.577 10.7842 34.9503 10.8376 35.377 10.8802C35.8037 10.9016 36.401 10.9122 37.169 10.9122ZM51.0938 22.6562V22.3362L53.0458 21.8562V0.800249L51.0938 0.32025V0.000249863H69.1418L68.0538 8.00025H67.6378L66.6138 2.84825C66.4218 2.01625 66.0911 1.41892 65.6218 1.05625C65.1524 0.672249 64.5764 0.480249 63.8938 0.480249H56.7258V10.9122H60.4378C60.7364 10.9122 61.0138 10.8376 61.2698 10.6882C61.5258 10.5176 61.7498 10.3149 61.9418 10.0802C62.2404 9.73892 62.4751 9.25892 62.6458 8.64025C62.8378 8.02158 62.9551 7.34958 62.9978 6.62425H63.3178V14.5922H62.9978L60.8538 11.3282H56.7258V22.1762H64.2138C64.9391 22.1762 65.5471 21.9309 66.0378 21.4402C66.5284 20.9496 66.8698 20.2136 67.0618 19.2322L67.6378 14.3042H68.0538L69.1418 22.6562H51.0938ZM71.5943 22.6562V22.3362L73.5783 21.9202L82.1543 0.000249863H84.5863L93.0343 21.9202L94.9863 22.3362V22.6562H86.8263V22.4002L89.0983 21.9522L81.8343 2.97625H81.4823L77.5143 13.5362C77.1303 14.4962 76.8316 15.4136 76.6183 16.2882C76.4263 17.1629 76.3303 17.9309 76.3303 18.5922C76.3303 19.3176 76.4583 19.9682 76.7143 20.5443C76.9916 21.1202 77.4289 21.5682 78.0263 21.8882C78.6236 22.1869 79.4023 22.3362 80.3623 22.3362V22.6562H71.5943ZM77.0983 13.4402V13.1202L86.0263 12.7682V13.4402H77.0983ZM96.901 22.6562V22.3362L99.301 21.9202V0.76825L97.029 0.32025V0.000249863H102.757L111.653 19.4562L111.237 18.9762H112.165L111.813 19.4242L118.821 0.000249863H124.517V0.32025L122.533 0.736248V21.9202L124.517 22.3362V22.6562H116.741V22.3362L118.853 21.9202V3.39225H118.373L111.429 22.6562H109.061L100.293 3.74425H99.781V12.6402C99.781 13.4296 99.8343 14.2509 99.941 15.1042C100.048 15.9362 100.218 16.7576 100.453 17.5682C100.688 18.3576 100.997 19.0936 101.381 19.7762C101.786 20.4376 102.288 20.9922 102.885 21.4402C103.482 21.8882 104.186 22.1869 104.997 22.3362V22.6562H96.901Z" fill="black"/>
</g>
<defs>
<filter id="filter0_d_7322_1544" x="0" y="0" width="128.517" height="31.1367" filterUnits="userSpaceOnUse" color-interpolation-filters="sRGB">
<feFlood flood-opacity="0" result="BackgroundImageFix"/>
<feColorMatrix in="SourceAlpha" type="matrix" values="0 0 0 0 0 0 0 0 0 0 0 0 0 0 0 0 0 0 127 0" result="hardAlpha"/>
<feOffset dy="4"/>
<feGaussianBlur stdDeviation="2"/>
<feComposite in2="hardAlpha" operator="out"/>
<feColorMatrix type="matrix" values="0 0 0 0 0 0 0 0 0 0 0 0 0 0 0 0 0 0 0.25 0"/>
<feBlend mode="normal" in2="BackgroundImageFix" result="effect1_dropShadow_7322_1544"/>
<feBlend mode="normal" in="SourceGraphic" in2="effect1_dropShadow_7322_1544" result="shape"/>
</filter>
</defs>
</svg>
